<svg xmlns="http://www.w3.org/2000/svg" viewBox="0 0 22 20" enable-background="new 0 0 22 20"><g id="Shape"><path d="M8 19c-.6 0-1-.4-1-1v-10c0-.1 0-.5.2-.6h.1l6-6 .3.3c.1.2.2.4.2.5v.2l-1.3 5.6h7.5c.4 0 .8.3.9.6v2.6999999999999997l-3 7.1c-.2.4-.5.6-.9.6h-9zm-7 0v-10h2v10h-2zM12.4 3.6l-.6 2.9-.6 2.5h8.7v2.1l-2.9 6.9h-9v-10l4.4-4.4m-10.4 6.4v8-8m11.2-10l-6.6 6.6c-.4.3-.6.8-.6 1.4v10c0 1.1.9 2 2 2h9c.8 0 1.5-.5 1.8-1.2l3-7.1c.1-.2.1-.5.1-.7v-2h.1c0-1.1-.9-2-2-2h-6.3l1-4.6v-.3c0-.4-.2-.8-.4-1.1l-1.1-1zm-9.2 8h-4v12h4v-12zm18 1z"/></g></svg>