<svg xmlns="http://www.w3.org/2000/svg" viewBox="0 0 32 20">><path class="cls-1" d="M29 0h-26a3 3 0 0 0-3 3v14a3 3 0 0 0 3 3h26a3 3 0 0 0 3-3v-14a3 3 0 0 0-3-3zm-14.6 15.85a8.37 8.37 0 0 1-1.67.17 6.13 6.13 0 0 1-2-.32 4.38 4.38 0 0 1-1.65-1 5.18 5.18 0 0 1-1.08-1.91 8.19 8.19 0 0 1-.45-2.79 7.62 7.62 0 0 1 .45-2.85 5.12 5.12 0 0 1 1.25-1.85 4.46 4.46 0 0 1 1.67-1 5.76 5.76 0 0 1 1.86-.3 8.68 8.68 0 0 1 1.67.14 5.74 5.74 0 0 1 1.14.31l-.45 1.92a3.54 3.54 0 0 0-.9-.27 9 9 0 0 0-1.24-.1 2.75 2.75 0 0 0-2.2 1 4.57 4.57 0 0 0-.84 3 6.33 6.33 0 0 0 .2 1.63 3.51 3.51 0 0 0 .6 1.26 2.75 2.75 0 0 0 1 .81 3.24 3.24 0 0 0 1.4.29 4.63 4.63 0 0 0 1.26-.15 3.62 3.62 0 0 0 .89-.38l.46 1.84a3.33 3.33 0 0 1-1.37.55zm8.7 0a8.4 8.4 0 0 1-1.68.17 6.12 6.12 0 0 1-2-.32 4.31 4.31 0 0 1-1.65-1 5.18 5.18 0 0 1-1.13-1.86 8.19 8.19 0 0 1-.39-2.84 7.62 7.62 0 0 1 .47-2.85 5.1 5.1 0 0 1 1.22-1.85 4.42 4.42 0 0 1 1.68-1 5.7 5.7 0 0 1 1.85-.3 8.87 8.87 0 0 1 1.68.14 5.44 5.44 0 0 1 1.13.31l-.44 1.92a3.62 3.62 0 0 0-.91-.27 8.78 8.78 0 0 0-1.26-.1 2.77 2.77 0 0 0-2.21 1 4.63 4.63 0 0 0-.83 3 6.33 6.33 0 0 0 .2 1.63 3.51 3.51 0 0 0 .6 1.26 2.75 2.75 0 0 0 1 .81 3.23 3.23 0 0 0 1.39.29 4.53 4.53 0 0 0 1.26-.15 3.69 3.69 0 0 0 .9-.38l.46 1.84a3.33 3.33 0 0 1-1.34.55z"/></svg>