<svg xmlns="http://www.w3.org/2000/svg" viewBox="0 0 76.2 69" enable-background="new 0 0 76.2 69"><path d="M71.9 46h-67.6c-2.4 0-4.3 2-4.3 4.3v3.5c0 2.3 1.9 4.2 4.3 4.2h1v1c0 5.5 4.5 9.9 9.9 9.9h45.8c5.5 0 9.9-4.5 9.9-9.9v-1h1c2.3 0 4.3-1.9 4.3-4.3v-3.5c0-2.2-1.9-4.2-4.3-4.2zm-3.9 13c0 3.8-3.1 6.9-6.9 6.9h-46c-3.8 0-6.9-3.1-6.9-6.9v-1h59.8v1zm5.2-5.3c0 .7-.6 1.3-1.3 1.3h-67.6c-.7 0-1.3-.6-1.3-1.3v-3.5c0-.6.6-1.2 1.3-1.2h67.7c.7 0 1.3.6 1.3 1.3v3.4zM16.2 37.9l5.4 4 5.5-4 5.5 4 5.5-4 5.4 4 5.5-4 5.5 4 5.5-4 5.5 4 6.3-4.7-1.7-2.4-4.6 3.3-5.5-4-5.5 4-5.5-4-5.5 4-5.4-4-5.5 4-5.5-4-5.5 4-5.4-4-5.5 4-4.6-3.3-1.8 2.4 6.4 4.7zM70.9 31.1c0-.6.1-2.6 0-3-.7-15.6-15.1-28.1-32.8-28.1-17.7 0-32.2 12.5-32.9 28.1v3h65.7zm-32.8-28.1c16 0 29.2 11.2 29.8 25.1h-59.7c.7-13.9 13.9-25.1 29.9-25.1z"/><circle cx="38.1" cy="15" r="2"/><circle cx="30.1" cy="10.1" r="2"/><circle cx="46.1" cy="10.1" r="2"/></svg>