<svg xmlns="http://www.w3.org/2000/svg" viewBox="0 0 74.7 72.3" enable-background="new 0 0 74.7 72.3"><path d="M29.5 65.3h16v-23.9h-16v23.9zm13.1-2.9h-10.2v-18.1h10.1v18.1zM72.6 39.4l2.1-2.1-9.9-9.9v-27h-13.8v13.2l-13.7-13.6-37.3 37.4 2.1 2.1 7.8-7.8v37.8h-3.9v2.9h63.9v-2.9h-5.1v-37.9l7.8 7.8zm-18.7-36h7.9v21.1l-7.9-7.9v-13.2zm8 66h-49v-40.7l24.4-24.5 24.5 24.5v40.7zM29.8 27.2c0 4.3 3.5 7.8 7.7 7.8 4.3 0 7.8-3.5 7.8-7.8s-3.5-7.7-7.8-7.7-7.7 3.4-7.7 7.7zm7.7-5c2.7 0 5 2.2 5 5 0 2.7-2.2 5-5 5-2.7 0-5-2.2-5-5 0-2.7 2.3-5 5-5zM16.9 41.4h3v3.9h-3zM22.8 41.4h3v3.9h-3zM16.9 47.4h3v3.9h-3zM22.8 47.4h3v3.9h-3zM48.8 41.4h3v3.9h-3zM54.8 41.4h3v3.9h-3zM48.8 47.4h3v3.9h-3zM54.8 47.4h3v3.9h-3z"/></svg>