<svg xmlns="http://www.w3.org/2000/svg" xmlns:xlink="http://www.w3.org/1999/xlink"><symbol id="icon-burger" viewBox="0 0 76.2 69"><path d="M71.9 46h-67.6c-2.4 0-4.3 2-4.3 4.3v3.5c0 2.3 1.9 4.2 4.3 4.2h1v1c0 5.5 4.5 9.9 9.9 9.9h45.8c5.5 0 9.9-4.5 9.9-9.9v-1h1c2.3 0 4.3-1.9 4.3-4.3v-3.5c0-2.2-1.9-4.2-4.3-4.2zm-3.9 13c0 3.8-3.1 6.9-6.9 6.9h-46c-3.8 0-6.9-3.1-6.9-6.9v-1h59.8v1zm5.2-5.3c0 .7-.6 1.3-1.3 1.3h-67.6c-.7 0-1.3-.6-1.3-1.3v-3.5c0-.6.6-1.2 1.3-1.2h67.7c.7 0 1.3.6 1.3 1.3v3.4zM16.2 37.9l5.4 4 5.5-4 5.5 4 5.5-4 5.4 4 5.5-4 5.5 4 5.5-4 5.5 4 6.3-4.7-1.7-2.4-4.6 3.3-5.5-4-5.5 4-5.5-4-5.5 4-5.4-4-5.5 4-5.5-4-5.5 4-5.4-4-5.5 4-4.6-3.3-1.8 2.4 6.4 4.7zM70.9 31.1c0-.6.1-2.6 0-3-.7-15.6-15.1-28.1-32.8-28.1-17.7 0-32.2 12.5-32.9 28.1v3h65.7zm-32.8-28.1c16 0 29.2 11.2 29.8 25.1h-59.7c.7-13.9 13.9-25.1 29.9-25.1z"/><circle cx="38.1" cy="15" r="2"/><circle cx="30.1" cy="10.1" r="2"/><circle cx="46.1" cy="10.1" r="2"/></symbol><symbol id="icon-cross" viewBox="0 0 22.2 22.2"><path d="M22.2 2.8l-2.8-2.8-8.3 8.3-8.3-8.3-2.8 2.8 8.3 8.3-8.3 8.3 2.8 2.8 8.3-8.3 8.3 8.3 2.8-2.8-8.3-8.3z"/></symbol><symbol id="icon-facebook" viewBox="0 0 8.7 18.9"><path d="M6.3 3.4h2.4v-3.4h-2.9c-3.1.2-4.3 2.4-3.9 6.1h-1.9v3.5h2v9.3h3.8v-9.3h2.9v-3.5h-2.9c0-1 0-2.4.5-2.7z"/></symbol><symbol id="icon-fullscreen" viewBox="0 0 20 20"><title>icon-fullscreen</title><g><path class="cls-1" d="M0 0v6h3v-3h3v-3h-6zM3 14h-3v6h6v-3h-3v-3zM17 0h-3v3h3v3h3v-6h-3zM17 17h-3v3h6v-6h-3v3z"/></g></symbol><symbol id="icon-gift" viewBox="0 0 63 75.1"><path d="M60.2 22.2h-24.400000000000002c13.6-6.8 14.7-11.1 14.2-13.5-1.1-3.9-5.6-6.9-9.8-5.3-5.5 2.1-7 10.3-8.5 16.2-1.9-6-3.7-13.6-8-17.5-1.2-1.1-3-2.2-5.7-2-4 .4-9.7 5.3-7.3 10.8 2.2 5.3 9.5 8.7 14.4 11.4h-22.3c-1.6 0-2.8 1.3-2.8 2.8v11.2c0 1.6 1.3 2.8 2.8 2.8h.3v36h57v-36h.1c1.6 0 2.8-1.3 2.8-2.8v-11.2c0-1.6-1.3-2.9-2.8-2.9zm-18.4-16.3c2.1-.3 4.9 1.3 5.2 3.2.4 2.7-3.3 5.2-5 6.3-2.5 1.7-4.9 2.6-7.2 4 .8-3.7 2.5-12.9 7-13.5zm-22.6 9.8c-2.2-1.5-6.4-4.4-6.3-7.7.1-3.6 5.7-6.5 8.7-3.8 3.8 3.3 5.6 11 7 16.4-3.2-1.6-6.2-2.8-9.4-4.9zm5.9 56.4h-19.1v-33h19.1v33zm0-36h-22.1v-10.9h22.1v10.9zm10 36h-7.1v-46.9h7.1v46.9zm22 0h-19v-33h19.1v33zm2.9-36h-21.9v-10.9h21.9v10.9z"/></symbol><symbol id="icon-house" viewBox="0 0 74.7 72.3"><path d="M29.5 65.3h16v-23.9h-16v23.9zm13.1-2.9h-10.2v-18.1h10.1v18.1zM72.6 39.4l2.1-2.1-9.9-9.9v-27h-13.8v13.2l-13.7-13.6-37.3 37.4 2.1 2.1 7.8-7.8v37.8h-3.9v2.9h63.9v-2.9h-5.1v-37.9l7.8 7.8zm-18.7-36h7.9v21.1l-7.9-7.9v-13.2zm8 66h-49v-40.7l24.4-24.5 24.5 24.5v40.7zM29.8 27.2c0 4.3 3.5 7.8 7.7 7.8 4.3 0 7.8-3.5 7.8-7.8s-3.5-7.7-7.8-7.7-7.7 3.4-7.7 7.7zm7.7-5c2.7 0 5 2.2 5 5 0 2.7-2.2 5-5 5-2.7 0-5-2.2-5-5 0-2.7 2.3-5 5-5zM16.9 41.4h3v3.9h-3zM22.8 41.4h3v3.9h-3zM16.9 47.4h3v3.9h-3zM22.8 47.4h3v3.9h-3zM48.8 41.4h3v3.9h-3zM54.8 41.4h3v3.9h-3zM48.8 47.4h3v3.9h-3zM54.8 47.4h3v3.9h-3z"/></symbol><symbol id="icon-htmlacademy" viewBox="0 0 26.943 34.09">
            <path d="M13.62,0.017L13.472,0L0,1.412v24.661l13.473,8.017l13.43-7.99l0.042-0.025V1.412L13.62,0.017z M25.019,12.127L13.495,5.334 L13.494,5.23l-0.087,0.05l-0.088-0.056v0.109L1.925,12.118V3.147l11.548-1.212l11.547,1.212V12.127z M13.405,6.787L24.923,13.5 l-4.479,2.64l-7.093-4.221l-0.014,1.415l5.904,3.513l-0.86,0.507l-5.03-2.992l-0.014,1.415l3.827,2.275l-0.782,0.523l-3.031-1.787 l-0.014,1.413l1.853,1.091l-1.8,1.081L2.034,13.622L13.405,6.787z M1.925,15.127l11.411,6.791l0.016,1.044L5.41,18.234L5.395,19.65 l7.979,4.795l0.018,1.076l-7.973-4.74l-0.013,1.414l8.021,4.822l0.046,0.025l8.143-4.872l-0.011-5.177l3.415-2.036v10.021 L13.472,31.85L1.925,24.979V15.127z"/>
          </symbol><symbol id="icon-like" viewBox="0 0 22 20"><g id="Shape"><path d="M8 19c-.6 0-1-.4-1-1v-10c0-.1 0-.5.2-.6h.1l6-6 .3.3c.1.2.2.4.2.5v.2l-1.3 5.6h7.5c.4 0 .8.3.9.6v2.6999999999999997l-3 7.1c-.2.4-.5.6-.9.6h-9zm-7 0v-10h2v10h-2zM12.4 3.6l-.6 2.9-.6 2.5h8.7v2.1l-2.9 6.9h-9v-10l4.4-4.4m-10.4 6.4v8-8m11.2-10l-6.6 6.6c-.4.3-.6.8-.6 1.4v10c0 1.1.9 2 2 2h9c.8 0 1.5-.5 1.8-1.2l3-7.1c.1-.2.1-.5.1-.7v-2h.1c0-1.1-.9-2-2-2h-6.3l1-4.6v-.3c0-.4-.2-.8-.4-1.1l-1.1-1zm-9.2 8h-4v12h4v-12zm18 1z"/></g></symbol><symbol id="icon-mail" viewBox="0 0 16 12"><title>icon-mail</title><path d="M8 8a2.22 2.22 0 0 1-1-.34l-7-3.66v7a1 1 0 0 0 1 1h14a1 1 0 0 0 1-1v-7l-7 3.66a2.22 2.22 0 0 1-1 .34zm7-8h-14a1 1 0 0 0-1 1v.76l8 4.24 8-4.2v-.8a1 1 0 0 0-1-1z"/></symbol><symbol id="icon-menu" viewBox="0 0 22.9 22"><path d="M0 0h22.9v4h-22.9zm0 9h22.9v4h-22.9zm0 9h22.9v4h-22.9z"/></symbol><symbol id="icon-phone" viewBox="0 0 18 18"><path id="Shape" d="M3.6 7.8c1.4 2.8 3.8 5.1 6.6 6.6l2.2-2.2c.3-.3.7-.4 1-.2 1.1.4 2.3.6 3.6.6.6 0 1 .4 1 1v3.4c0 .6-.4 1-1 1-9.4 0-17-7.6-17-17 0-.6.4-1 1-1h3.5c.6 0 1 .4 1 1 0 1.2.2 2.4.6 3.6.1.3 0 .7-.2 1l-2.3 2.2z"/></symbol><symbol id="icon-reply" viewBox="0 0 45.35 56.69"><title>icon-reply_2</title><path class="cls-1" d="M22.68 11.34v-11.34l-14.18 14.17 14.18 14.18v-11.35a17 17 0 1 1-17 17h-5.68a22.68 22.68 0 1 0 22.68-22.66z" id="Layer_1"/></symbol><symbol id="icon-sub" viewBox="0 0 32 20">&gt;<path class="cls-1" d="M29 0h-26a3 3 0 0 0-3 3v14a3 3 0 0 0 3 3h26a3 3 0 0 0 3-3v-14a3 3 0 0 0-3-3zm-14.6 15.85a8.37 8.37 0 0 1-1.67.17 6.13 6.13 0 0 1-2-.32 4.38 4.38 0 0 1-1.65-1 5.18 5.18 0 0 1-1.08-1.91 8.19 8.19 0 0 1-.45-2.79 7.62 7.62 0 0 1 .45-2.85 5.12 5.12 0 0 1 1.25-1.85 4.46 4.46 0 0 1 1.67-1 5.76 5.76 0 0 1 1.86-.3 8.68 8.68 0 0 1 1.67.14 5.74 5.74 0 0 1 1.14.31l-.45 1.92a3.54 3.54 0 0 0-.9-.27 9 9 0 0 0-1.24-.1 2.75 2.75 0 0 0-2.2 1 4.57 4.57 0 0 0-.84 3 6.33 6.33 0 0 0 .2 1.63 3.51 3.51 0 0 0 .6 1.26 2.75 2.75 0 0 0 1 .81 3.24 3.24 0 0 0 1.4.29 4.63 4.63 0 0 0 1.26-.15 3.62 3.62 0 0 0 .89-.38l.46 1.84a3.33 3.33 0 0 1-1.37.55zm8.7 0a8.4 8.4 0 0 1-1.68.17 6.12 6.12 0 0 1-2-.32 4.31 4.31 0 0 1-1.65-1 5.18 5.18 0 0 1-1.13-1.86 8.19 8.19 0 0 1-.39-2.84 7.62 7.62 0 0 1 .47-2.85 5.1 5.1 0 0 1 1.22-1.85 4.42 4.42 0 0 1 1.68-1 5.7 5.7 0 0 1 1.85-.3 8.87 8.87 0 0 1 1.68.14 5.44 5.44 0 0 1 1.13.31l-.44 1.92a3.62 3.62 0 0 0-.91-.27 8.78 8.78 0 0 0-1.26-.1 2.77 2.77 0 0 0-2.21 1 4.63 4.63 0 0 0-.83 3 6.33 6.33 0 0 0 .2 1.63 3.51 3.51 0 0 0 .6 1.26 2.75 2.75 0 0 0 1 .81 3.23 3.23 0 0 0 1.39.29 4.53 4.53 0 0 0 1.26-.15 3.69 3.69 0 0 0 .9-.38l.46 1.84a3.33 3.33 0 0 1-1.34.55z"/></symbol><symbol id="icon-text-index" viewBox="0 0 459.8 350.1"><style type="text/css">.st0{fill:#766458;} .st1{fill:#81B3D3;} .st2{fill:#FFFFFF;}</style><path class="st0" d="M165.4 70l-.2.2c-1.4 1.5-3 2.2-4.5 2.2l2.8-4.9c1.8-3.1.1-6.1-2.7-6.1-2.3 0-4.1.9-5.8 3.9l-1.5 2.6-1.2 2.1-.2.2c-2.2 2.5-4.3 4.5-5.6 4.5-.7 0-1-.5-.3-1.6l6.4-11.2h2.4l.9-1.4h-2.5l2.8-4.9h-3l-2.8 4.9h-2.7l-.9 1.4h2.7l-6 10.4c-1.3 2.2-.4 4.3 2 4.3 1.7 0 3.7-1.3 5.5-3.1 0 3.8 5.3 4.6 8.5.5h.7c1.8 0 4.6-1.1 6.1-2.9 0-.5-.5-.9-.9-1.1zm-6.4.2h-.1c-1 0-1.8.8-1.8 1.8 0 .4.1.7.3 1v.1c-1.4 2.4-4.8 2-3.1-1.2l2.3-3.9 1.4-2.4c2.1-3.6 5-2.2 3.2.9l-2.2 3.7zM206.9 70l-.2.2c-2.2 2.5-4.9 4.5-7 4.5-1.8 0-2.9-1.2-1.6-3.6l.3-.5c1.9.8 5.6.4 7.8-3.5l.4-.7c1.6-2.8.1-4.8-2.4-4.8-2.4 0-4.3 1.3-5.6 3.5l-2.9 5-.2.2c-2.2 2.5-4.3 4.5-5.6 4.5-.7 0-1-.5-.3-1.6l4.3-7.6c1.3-2.3.1-3.9-1.6-3.9-1.3 0-2.7.7-4.2 2.3l4.8-8.3h-3l-8.3 14.3-.2.2c-2.2 2.5-4.3 4.5-5.6 4.5-.7 0-1-.5-.3-1.6l6.4-11.2h2.4l.9-1.4h-2.5l2.8-4.9h-3l-2.8 4.9h-2.7l-.9 1.4h2.7l-6 10.4c-1.3 2.2-.4 4.3 2 4.3 1.2 0 2.5-.6 3.8-1.6l-.8 1.3h3l4.5-7.9c4.6-5.8 6.6-5 5.4-2.8l-3.9 6.8c-1.3 2.2-.4 4.3 2 4.3 1.8 0 3.8-1.4 5.6-3.2.1 1.9 1.7 3.2 4.1 3.2 3.4 0 6.8-2.6 9.2-5.5.1-.6-.4-1-.8-1.2zm-5.7-4.2c1.7-3 4.8-2.5 3 .6l-.4.7c-1.4 2.4-3.4 2.4-4.5 2l1.9-3.3zM316 70l-.2.2c-1.1 1.3-2.4 2.4-3.6 3.3 1-2.9.7-7.2 2.6-11.1l-2.2-1.2c-1.2 1.7-3.9 5.6-6.7 8.8l-.2.2c-2.2 2.5-4.3 4.5-5.6 4.5-.7 0-1-.5-.3-1.6l6.4-11.2h-3l-5.3 9.3c-2.3 2.1-4 3.2-4.6 3-.7-.3 0-1.4.4-2.1l5.8-10.2h-3l-4.7 8.1-.2.2c-1.4 1.5-3 2.2-4.5 2.2l2.8-4.9c1.8-3.1.1-6.1-2.7-6.1-2.3 0-4.1.9-5.8 3.9l-1.5 2.6-1.2 2.1-.2.2c-2.2 2.5-4.9 4.5-7 4.5-1.8 0-2.9-1.2-1.6-3.6l.3-.5c1.9.8 5.6.4 7.8-3.5l.4-.7c1.6-2.8.1-4.8-2.4-4.8-2.4 0-4.3 1.3-5.6 3.5l-2.9 5-.2.2c-2.5 2.9-4.6 4.7-7 5.7l6.7-11.5h-1.8c0-1.2-1.3-2.9-3.1-2.9-1.6 0-3.9 1.3-5.1 3.5l-2.9 5-.2.2c-2.2 2.5-4.3 4.5-5.6 4.5-.7 0-1-.5-.3-1.6l3-5.2c1-1.8.5-2.9-.4-4.1l-1.7-2c-.4-.5-.4-1.2.2-1.7l-1.6-1.7c-1.7 1.5-1.8 3.2-.8 4.6l.3.3c-1.3 1.9-3.1 4.4-5.1 6.7l-.2.2c-1.4 1.5-3 2.2-4.5 2.2l2.8-4.9c1.8-3.1.1-6.1-2.7-6.1-2.3 0-4.1.9-5.8 3.9l-1.5 2.6-1.2 2.1-.2.2c-2.5 2.9-4.6 4.7-7 5.7l6.7-11.5h-1.8c0-1.2-1.3-2.9-3.1-2.9-1.6 0-3.9 1.3-5.1 3.5l-4.2 7.3c-1.3 2.2-.4 4.3 2 4.3.8 0 1.8-.4 2.9-1l-.8 1.4c-4 1.2-6.6 2.9-6.6 5.1 0 2.9 4.4 3.5 6.6-.2l2.3-3.9c2.4-.7 4.7-2.2 7.2-4.5 0 3.8 5.3 4.6 8.5.5h.7c1.8 0 4.6-1.1 6.1-2.9 1.4-1.7 2.6-3.2 5-6.4l.4.5c.4.5.5 1.1.2 1.7l-3.2 5.5c-1.3 2.2-.4 4.3 2 4.3 1.5 0 3.2-1 4.8-2.4 0 1.4.9 2.4 2.6 2.4.8 0 1.8-.4 2.9-1l-.7 1.2c-4 1.2-6.6 2.9-6.6 5.1 0 2.9 4.4 3.5 6.6-.2l2.3-3.9c2.4-.8 4.8-2.2 7.3-4.6.1 1.9 1.6 3.2 4.1 3.2 2.4 0 4.9-1.4 6.9-3.2-.1 3.9 5.3 4.7 8.5.6h.7c.9 0 2.2-.3 3.3-.9-.8 2.1-.1 3.5 1.6 3.5 1.6 0 3.5-1.5 4.9-2.9-.3 1.6.7 2.9 2.6 2.9 2.5 0 5.3-2.6 7.8-5.5 1.7-2 3.2-4.1 4.3-5.5-1.2 3.1-.5 8.7-3.4 8.7-1 0-1.4-1.1-1.4-1.1l-1.9 1s.5 2.4 3.3 2.4c.3 0 .5 0 .8-.1h.1c3.1-.4 6.1-2.8 8.3-5.4-.1-.5-.6-1-1.1-1.1zm-42.9-4.2c1.7-3 4.8-2.5 3 .6l-.4.7c-1.4 2.4-3.4 2.4-4.5 2l1.9-3.3zm-57.2 15.6c-.6 1.1-1.6 1-1.6.1 0-.8.7-1.7 3-2.6l-1.4 2.5zm1.4-6.7c-.7 0-1-.5-.3-1.6l4.2-7.3c1.6-2.8 4.8-2.1 3.3.6l-2.3 4c-1.8 2.9-3.7 4.3-4.9 4.3zm18.4-4.5h-.1c-1 0-1.8.8-1.8 1.8 0 .4.1.7.3 1v.1c-1.4 2.4-4.8 2-3.1-1.2l2.3-3.9 1.4-2.4c2.1-3.6 5-2.2 3.2.9l-2.2 3.7zm18.8 11.2c-.6 1.1-1.6 1-1.6.1 0-.8.7-1.7 3-2.6l-1.4 2.5zm1.4-6.7c-.7 0-1-.5-.3-1.6l4.2-7.3c1.6-2.8 4.8-2.1 3.3.6l-2.3 4c-1.8 2.9-3.7 4.3-4.9 4.3zm29.5-4.5h-.1c-1 0-1.8.8-1.8 1.8 0 .4.1.7.3 1v.1c-1.4 2.4-4.8 2-3.1-1.2l2.3-3.9 1.4-2.4c2.1-3.6 5-2.2 3.2.9l-2.2 3.7zM101.4 66.8h28.9v2h-28.9zM328.4 66.8h28.9v2h-28.9z"/><path class="st1" d="M163.2 0h7.7l-1.2 44.9h-14.5l-2-18.5-2 18.5h-14.6l-1.1-44.9h7.6l.6 37.2h.8l4.9-37.2h7.6l4.9 37.2h.8l.5-37.2zM195 37.2v7.8h-20.9v-45h20.9v7.7h-13.3v10.8h10.6v7.7h-10.6v10.9h13.3zM216.4 37.2v7.8h-18.3v-45h7.6v37.2h10.7zM232.6 28.4l7.7-1.8v13.6c0 2.6-2.2 4.7-4.7 4.7h-11.5c-2.6 0-4.7-2.2-4.7-4.7v-35.5c0-2.6 2.1-4.7 4.7-4.7h11.5c2.5 0 4.7 2.1 4.7 4.7v9.1l-7.7 1.8v-8h-5.5v29.5h5.5v-8.7zM261.1 0c2.5 0 4.7 2.1 4.7 4.7v35.4c0 2.6-2.2 4.7-4.7 4.7h-11.5c-2.6 0-4.7-2.2-4.7-4.7v-35.4c0-2.6 2.1-4.7 4.7-4.7h11.5zm-3 7.7h-5.5v29.5h5.5v-29.5zM290.8 0h7.6v44.9h-7.6v-22.1l-3.1 11.4h-7.5l-3-11.4v22.1h-7.6v-44.9h7.6l6.8 21.7 6.8-21.7zM323.1 37.2v7.8h-20.9v-45h20.9v7.7h-13.3v10.8h10.6v7.7h-10.6v10.9h13.3z"/><path class="st2" d="M44.5 157.6c-3.6-3-8.1-5-12.9-5-3.6 0-8.3 2.1-8.3 6.3 0 4.4 5.3 6.1 8.6 7.1l5 1.5c10.4 3.1 18.5 8.3 18.5 20.4 0 7.4-1.8 15.1-7.7 20.1-5.9 5-13.7 7-21.2 7-9.4 0-18.7-3.2-26.3-8.5l8.1-15.5c4.9 4.3 10.6 7.7 17.3 7.7 4.6 0 9.4-2.3 9.4-7.5 0-5.5-7.6-7.3-11.8-8.5-12.2-3.6-20.2-6.7-20.2-21.2 0-15.2 10.8-25.1 25.8-25.1 7.5 0 16.8 2.4 23.4 6.2l-7.7 15zM91.8 154.8v12.5h21.9v16.5h-21.9v12.9h23.2v16.5h-42.6v-74.8h42.6v16.5l-23.2-.1zM129.4 138.4h27.6c20.8 0 38 16.4 38 37.4s-17.3 37.4-38 37.4h-27.6v-74.8zm19.5 58.3h4.4c11.6 0 21.5-6.4 21.5-20.9 0-13.4-8.8-20.9-21.3-20.9h-4.6v41.8zM286.9 174.4c0 24.2-17.4 41.3-41.4 41.3s-41.4-17.1-41.4-41.3c0-22.6 19.9-38.5 41.4-38.5s41.4 15.9 41.4 38.5zm-62.6.1c0 12.9 9.5 22.3 21.1 22.3 11.6 0 21.1-9.4 21.1-22.3 0-10.3-9.5-19.8-21.1-19.8-11.5 0-21.1 9.5-21.1 19.8zM297.2 138.4h19.5l35.6 45.8h.2v-45.8h19.5v74.8h-19.5l-35.6-45.9h-.2v45.9h-19.5v-74.8zM407.3 200.2l-5.2 13h-20.6l28.8-74.8h21.2l28.2 74.8h-20.7l-4.9-13h-26.8zm13.6-38.7h-.2l-8 23.8h16.2l-8-23.8zM108.1 287.7c7.7-2.6 8.2-12.2.7-12.2-2.1 0-4.6 1.5-6.3 4.4l-10.2 17.7c-.5.8-.9 1.5-1.5 2.2-2.6-3.6-1.9-9 1.8-11.4l-1.5-1.9c-8 5.1-5.6 19.7 7.7 19.7 11.3 0 16.6-13.6 9.3-18.5zm-9.4 15.6c-2.3 0-4-.5-5.5-1.3.7-.8 1.3-1.7 1.9-2.7l6.4-11.1 1 .1c8.9 1.9 5.4 15-3.8 15zm4.1-17.3l3.1-5.3c2.8-4.8 6.3-2 4.4 1.6-1.5 2.8-3.6 3.6-7.5 3.7zM140.2 300c-.6 2.2.6 4.1 3.1 4.1 1.5 0 3.4-1 5.3-2.5.2 1.5 1.4 2.5 3.3 2.5 2 0 4.2-1.4 6.4-3.4-.4 2 .5 3.4 2.4 3.4 2.1 0 4.4-1.9 6.2-3.6-.4 2 .8 3.6 3.2 3.6 3.1 0 6.7-3.4 9.9-7l-.1-.2c2.1-2.4 3.9-5 5.3-6.8-1.5 3.9-.7 11-4.3 11-1.3 0-1.8-1.4-1.8-1.4l-2.4 1.2s.7 3.1 4.2 3.1c.4 0 .7 0 1.1-.1h.1c2.8-.4 5.5-2.1 7.9-4.2.1 2.5 2 4.3 5.1 4.3 4.3 0 8.6-3.4 11.7-7-.3-.5-.9-1.1-1.4-1.3l-.3.3c-2.7 3.2-6.2 5.7-8.9 5.7-2.3 0-3.7-1.5-2-4.5l.4-.7c2.4 1 7 .5 9.9-4.4l.5-.9c2-3.5.1-6.1-3-6.1s-5.5 1.6-7.1 4.4l-3.7 6.3h-.1l-.3.3c-1.4 1.6-3.1 3.1-4.6 4.1 1.2-3.6.9-9.2 3.3-14l-2.8-1.5c-1.6 2.2-5 7.1-8.4 11.1l.1.1-.1.2c-2.7 3.2-5.4 5.7-7.1 5.7-.8 0-1.3-.6-.4-2.1l8.1-14.2h-3.8l-6.7 11.8c-2.9 2.6-5.1 4.1-5.8 3.8-.9-.4 0-1.8.5-2.6l7.4-12.9h-3.8l-6 10.4-.3-.2-.3.3c-2.7 3.2-5.4 5.7-7.1 5.7-.8 0-1.3-.6-.4-2.1l6.1-10.7h-2.2c.1-1.6-1.5-3.8-4-3.8-2 0-4.9 1.6-6.5 4.4l-3.8 6.6c-.2-.2-.4-.3-.6-.4l-.3.3c-2.7 3.2-6.2 5.7-8.9 5.7-2.3 0-3.7-1.5-2-4.5l3.9-6.8c2.2-3.8 6.1-3.1 3.8.8l-.5.9h3.1l.5-.9c2-3.5.1-6.1-3-6.1s-5.5 1.6-7.1 4.4l-3.8 6.5-.3-.2-.3.3c-2.7 3.2-6.2 5.7-8.9 5.7-2.3 0-3.7-1.5-2-4.5l.4-.7c2.4 1 7 .5 9.9-4.4l.5-.9c2-3.5.1-6.1-3-6.1s-5.5 1.6-7.1 4.4l-4 6.8c-2.4 4-.3 7.8 4.2 7.8 3.3 0 6.7-2 9.4-4.6-.1 2.6 1.9 4.6 5.1 4.6 3.2-.2 6.3-2 9-4.3zm58-9.6c2.2-3.8 6.1-3.1 3.8.8l-.5.9c-1.8 3.1-4.3 3-5.7 2.5l2.4-4.2zm-54.2 9.3l5.3-9.2c2-3.5 6.1-2.6 4.2.8l-3 5.2c-2.3 3.6-4.6 5.3-6.1 5.3-.8-.1-1.3-.6-.4-2.1zm-24.2-9.3c2.2-3.8 6.1-3.1 3.8.8l-.5.9c-1.8 3.1-4.3 3-5.7 2.5l2.4-4.2zM248.4 304.1c4.3 0 8.6-3.4 11.7-7-.3-.5-.9-1.1-1.4-1.3l-.3.3c-2.7 3.2-6.2 5.7-8.9 5.7-2.3 0-3.7-1.5-2-4.5l.4-.7c2.4 1 7 .5 9.9-4.4l.5-.9c2-3.5.1-6.1-3-6.1s-5.5 1.6-7.1 4.4l-3.7 6.3s-.1 0-.1-.1l-.3.3c-2.7 3.2-5.4 5.7-7.1 5.7-.8 0-1.3-.6-.4-2.1l5.5-9.6c1.6-2.9.1-5-2-5-1.6 0-3.4.9-5.3 2.9l6.1-10.5h-3.9l-10.7 18.5-.4-.3-.3.3c-2.7 3.2-5.4 5.7-7.1 5.7-.8 0-1.3-.6-.4-2.1l8.1-14.2h3.1l1.1-1.8h-3.1l3.6-6.2h-3.8l-3.6 6.2h-3.4l-1.1 1.8h3.5l-7.6 13.2c-1.6 2.8-.5 5.4 2.6 5.4 1.9 0 3.9-1.2 6-3l-1.5 2.6h3.8l5.8-10c5.8-7.3 8.4-6.4 6.8-3.6l-4.9 8.6c-1.6 2.8-.5 5.4 2.6 5.4 2.3 0 4.9-1.8 7.3-4.2 0 2.5 1.9 4.3 5 4.3zm3.1-13.7c2.2-3.8 6.1-3.1 3.8.8l-.5.9c-1.8 3.1-4.3 3-5.7 2.5l2.4-4.2zM363.4 295.8l-.3.3c-2.7 3.2-5.4 5.7-7.1 5.7-.8 0-1.3-.6-.4-2.1l12.8-22.2h-3.8l-5.6 9.6c-.7-1.1-1.9-2-3.5-2-2 0-4.9 1.6-6.5 4.4l-3.7 6.4c-.1 0-.2-.1-.2-.1l-.3.3c-2.7 3.2-5.4 5.7-7.1 5.7-.8 0-1.3-.6-.4-2.1l5.5-9.6c1.6-2.9.1-5-2-5-1.6 0-3.4.9-5.3 2.8l1.4-2.5h-3.8l-6.1 10.5c-.1-.1-.2-.2-.4-.2l-.3.3c-2.7 3.2-5.4 5.7-7.1 5.7-.8 0-1.3-.6-.4-2.1l6.1-10.7h-1.9c.1-1.6-1.5-3.8-4-3.8-2 0-4.9 1.6-6.5 4.4l-3.7 6.3-.2.2c-2.7 3.2-5.4 5.7-7.1 5.7-.8 0-1.3-.6-.4-2.1l3.8-6.6c1.3-2.3.7-3.6-.5-5.1l-2.1-2.6c-.5-.7-.5-1.5.2-2.2l-2-2.2c-2.2 1.9-2.3 4.1-1 5.8l.3.4c-1.7 2.4-3.9 5.6-6.4 8.5l.3.3c-3.1 3.6-5.8 5.9-8.8 7.2l4.8-8.2h-3.7l-.4.7c-2 3.5-4.3 6.1-7.3 6.1-2.6 0-3.1-2.6-.8-6.5l1.1-1.9c.7.1 1.4.2 2.2.2 13.5 0 20-18.1 8.1-18.1-2.1 0-4.6 1.5-6.3 4.4l-5.9 10.2c-2.2-1.2-3.4-3.3-3.4-5.4 0-1.8.8-3.5 2.4-4.8l-1.2-2.2c-2.7 1.9-3.9 4.5-3.9 7.1 0 3 1.7 5.9 4.8 7.5l-1.1 2c-2.7 4.6-2.2 9.7 3.2 9.7 1.6 0 3-.5 4.1-1.2l-1 1.7c-5.1 1.6-8.3 3.6-8.3 6.5 0 3.6 5.6 4.4 8.3-.3l2.9-5c3.9-1.2 7.8-3.9 12-8.8-.1-.1-.1-.2-.2-.4 1.7-2 3.1-3.9 6-7.8l.5.6c.5.6.7 1.4.2 2.2l-4 7c-1.6 2.8-.5 5.4 2.6 5.4 1.9 0 4-1.2 6-3 0 1.7 1.1 3 3.3 3 1.5 0 3.4-1 5.3-2.5.2 1.5 1.4 2.5 3.3 2.5 1.8 0 3.8-1.1 5.7-2.8l-1.4 2.4h3.8l5.8-10.1c5.8-7.3 8.4-6.3 6.7-3.5l-4.9 8.6c-1.6 2.8-.5 5.4 2.6 5.4 2 0 4.2-1.4 6.4-3.3-.2 1.9 1 3.3 3.3 3.3 1.5 0 3.4-1 5.3-2.5.2 1.5 1.4 2.5 3.3 2.5 3.1 0 6.7-3.4 9.9-7-.4-.2-1.1-.8-1.6-1zm-77.9-14.2c1.1-1.9 2.4-2.8 3.4-2.8 6 0 1.8 12.3-8.1 12.3h-.8l5.5-9.5zm-8.1 28.6c-.8 1.4-2.1 1.2-2.1.2s.9-2.1 3.8-3.2l-1.7 3zm39.7-13.8c-2.3 3.6-4.6 5.3-6.1 5.3-.8 0-1.3-.6-.4-2.1l5.3-9.2c2-3.5 6.1-2.6 4.2.8l-3 5.2zm36.7-.2c-2.3 3.8-4.6 5.5-6.2 5.5-.8 0-1.3-.6-.4-2.1l5.3-9.2c2-3.5 6.1-2.6 4.2.8l-2.9 5zM236.7 331.8l-.3.3c-2.7 3.2-5.4 5.7-7.1 5.7-.8 0-1.3-.6-.4-2.1l5.5-9.6c1.6-2.9.1-5-2-5-1.6 0-3.4.9-5.3 2.8l1.4-2.5h-3.8l-6.1 10.6-.5-.3-.3.3c-1.7 1.9-3.8 2.8-5.7 2.8l3.6-6.2c2.3-4 .2-7.7-3.4-7.7-2.9 0-5.2 1.2-7.4 5l-1.9 3.2-1.6 2.8-.3-.2-.3.3c-3.1 3.6-5.8 5.9-8.8 7.2l10.4-17.8h-3.8l-6.7 11.7c-2.9 2.7-5.2 4.2-5.9 3.9-.9-.4 0-1.8.5-2.6l7.4-12.9h-3.8l-6.1 10.5-.3-.2-.3.3c-2.7 3.2-5.4 5.7-7.1 5.7-.8 0-1.3-.6-.4-2.1l5.5-9.6c1.6-2.9.1-5-2-5-1.6 0-3.4.9-5.3 2.8l1.4-2.5h-3.8l-6.1 10.5c-.1-.1-.2-.2-.4-.2l-.3.3c-2.7 3.2-5.4 5.7-7.1 5.7-.8 0-1.3-.6-.4-2.1l6.1-10.7h-2.2c.1-1.6-1.5-3.8-4-3.8-2 0-4.9 1.6-6.5 4.4l-3.9 6.8c-.3-.2-.6-.4-.8-.5l-.3.3c-2.7 3.2-6.1 5.7-9.8 5.7-2.6 0-4.2-2.6-1.9-6.5l1.1-1.9c.7.1 1.4.2 2.2.2 4 0 8.6-2.1 11.6-7.3 1.1-1.9 1.5-3.6 1.5-5.1 0-3.4-2.2-5.7-5-5.7-2.1 0-4.6 1.5-6.3 4.4l-5.9 10.2c-2.2-1.2-3.4-3.3-3.4-5.4 0-1.8.8-3.5 2.4-4.8l-1.2-2.2c-2.7 1.9-3.9 4.5-3.9 7.1 0 3 1.7 5.9 4.8 7.5l-1.1 2c-2.7 4.6-1.1 9.7 4.3 9.7 4.2 0 7.4-1.9 10-4.4-.8 2.4.4 4.4 3.1 4.4 1.5 0 3.4-1 5.3-2.5.2 1.5 1.4 2.5 3.3 2.5 1.8 0 3.8-1.1 5.7-2.8l-1.4 2.4h3.8l5.8-10.1c5.8-7.3 8.4-6.3 6.7-3.5l-4.9 8.6c-1.6 2.8-.5 5.4 2.6 5.4 2 0 4.3-1.4 6.5-3.4-.5 2.1.5 3.4 2.4 3.4 1.8 0 3.9-1.5 5.6-3.1l-2.1 3.6c-5.1 1.5-8.4 3.6-8.4 6.5 0 3.6 5.6 4.4 8.3-.3l2.9-5c3.2-1 6.3-3 9.6-6.2-.5 5.3 6.5 6.5 10.8 1.1h.8c1.4 0 3.3-.5 5-1.5l-2.5 4.4h3.8l5.8-10.1c5.8-7.3 8.4-6.3 6.7-3.5l-4.9 8.6c-1.6 2.8-.5 5.4 2.6 5.4s6.7-3.4 9.9-7c-.1-.3-.8-.9-1.3-1.1zm-94.4-14.2c1.1-1.9 2.4-2.8 3.4-2.8 1.4 0 2.1.9 2.1 2.3 0 3.5-4.3 9.9-10.2 9.9h-.8l5.5-9.4zm13.4 14.8c-2.3 3.6-4.6 5.3-6.1 5.3-.8 0-1.3-.6-.4-2.1l5.3-9.2c2-3.5 6.1-2.6 4.2.8l-3 5.2zm28.8 13.8c-.8 1.4-2.1 1.2-2.1.2s.9-2.1 3.8-3.2l-1.7 3zm25.6-14.2h-.2c-1.2 0-2.2 1-2.2 2.3 0 .5.1.9.4 1.3v.1c-1.8 3.1-6.1 2.5-3.9-1.5l2.9-5 1.8-3.1c2.7-4.5 6.3-2.7 4 1.2l-2.8 4.7zM324.6 333.1c-.2-.6-.9-1.2-1.4-1.3l-.3.3c-1.4 1.6-3.1 3.1-4.6 4.1 1.2-3.6.9-9.2 3.3-14l-2.8-1.5c-1.6 2.2-5 7.1-8.4 11.1l-.3.3c-2.7 3.2-5.4 5.7-7.1 5.7-.8 0-1.6-.8-1.6-2.6v-1.6c2.7.3 5.5-1.4 7.3-4.5l1-1.8c3.5-6.1-2.2-8.1-6.1-4.5l5.4-9.4h-3.8l-10.8 18.8c-.2-.2-.5-.4-.7-.5l-.3.3c-2.7 3.2-6.2 5.7-8.9 5.7-2.3 0-3.7-1.5-2-4.5l3.9-6.8c2.2-3.8 6.1-3.1 3.8.8l-.5.9h3.1l.5-.9c2-3.5.1-6.1-3-6.1s-5.5 1.6-7.1 4.4l-3.7 6.4c-.1 0-.2-.1-.2-.1l-.3.3c-2.7 3.2-5.4 5.7-7.1 5.7-.8 0-1.3-.6-.4-2.1l8.1-14.2h-3.8l-6.7 11.8c-2.9 2.6-5.1 4.1-5.8 3.8-.9-.4 0-1.8.5-2.6l7.4-12.9h-3.8l-7.4 12.7c-.8.7-1.7 1.4-2.4 2 1.2-3.6.9-9.2 3.3-14l-2.8-1.5c-1.6 2.2-10.3 13.8-13.8 17.8.3.5.9.9 1.4 1.3 2.2-2.5 9.4-11.8 10.7-13.6-1.5 3.9-.7 11-4.3 11-1.3 0-1.8-1.4-1.8-1.4l-2.4 1.2s.7 3.1 4.2 3.1c.4 0 .7 0 1.1-.1h.1c1.9-.3 3.8-1.1 5.6-2.4 0 1.5.9 2.5 2.5 2.5 2.1 0 4.4-1.9 6.2-3.6-.4 2 .8 3.6 3.2 3.6 2.4 0 5-1.9 7.5-4.4 0 2.5 2 4.4 5.1 4.4 3.1 0 6.1-1.7 8.8-4l-2.1 3.7h3.8l4.3-7.5v3c0 3.2.6 4.9 3.7 4.9s6.7-3.4 9.9-7c2.2-2.5 4-5.1 5.4-6.9-1.5 3.9-.7 11-4.3 11-1.3 0-1.8-1.4-1.8-1.4l-2.4 1.2s.7 3.1 4.2 3.1c.4 0 .7 0 1.1-.1h.1c3.8-.7 7.7-3.8 10.5-7.1zm-25.2-3l1.1-1.9c4.4-6.1 7.4-4.4 6-2.1l-1.8 3.1c-1.1 2-4.4 3.4-5.3.9zM324.5 335.7c-1.2 0-2.2 1-2.2 2.2 0 1.2.9 2.2 2.2 2.2 1.2 0 2.2-.9 2.2-2.2 0-1.2-1-2.2-2.2-2.2zM324.7 334.2h3.8l11.9-20.7h-3.8zM80.4 277.6c0 .3-.1.6-.2.9-.1.3-.3.6-.5.8-.2.2-.5.4-.8.6-.3.1-.7.2-1.1.2-.5 0-.9-.1-1.3-.3-.4-.2-.8-.4-1.1-.7-.3-.3-.4-.6-.6-1-.1-.4-.2-.8-.2-1.3 0-.9.2-1.6.5-2.4.3-.7.7-1.4 1.3-1.9.2-.2.5-.5.8-.7.3-.2.6-.4.9-.5.3-.1.5-.3.7-.4.2-.1.3-.1.4-.2l1.4 2c-.2.1-.5.2-.8.4-.3.1-.6.3-.9.5-.3.2-.5.5-.7.8-.2.3-.3.6-.3 1 .7 0 1.2.2 1.7.6.6.3.8.9.8 1.6zm7.9 0c0 .3-.1.6-.2.9-.1.3-.3.6-.5.8-.2.2-.5.4-.8.6-.3.1-.7.2-1.1.2-.5 0-.9-.1-1.3-.3-.4-.2-.8-.4-1.1-.7-.2-.3-.4-.6-.6-1-.1-.4-.2-.8-.2-1.3 0-.9.2-1.6.5-2.4.3-.7.7-1.4 1.3-1.9.2-.2.5-.5.8-.7.3-.2.6-.4.9-.5.3-.1.5-.3.7-.4.2-.1.3-.1.4-.2l1.4 2c-.2.1-.5.2-.8.4-.3.1-.6.3-.9.5-.3.2-.5.5-.7.8-.2.3-.3.6-.3 1 .7 0 1.2.2 1.7.6.5.3.8.9.8 1.6zM353.4 336.5c0-.3.1-.6.2-.9.1-.3.3-.6.5-.8.2-.2.5-.4.8-.6.3-.1.7-.2 1.1-.2.5 0 .9.1 1.3.3.4.2.8.4 1.1.7.3.3.4.6.6 1 .1.4.2.8.2 1.3 0 .9-.2 1.6-.5 2.4-.3.7-.7 1.4-1.3 1.9-.2.2-.5.5-.8.7-.3.2-.6.4-.9.5-.3.1-.5.3-.7.4-.2.1-.3.1-.4.2l-1.4-2c.2-.1.5-.2.8-.4.3-.1.6-.3.9-.5.3-.2.5-.5.7-.8.2-.3.3-.6.3-1-.7 0-1.2-.2-1.7-.6-.5-.3-.8-.9-.8-1.6zm-7.8 0c0-.3.1-.6.2-.9.1-.3.3-.6.5-.8.2-.2.5-.4.8-.6.3-.1.7-.2 1.1-.2.5 0 .9.1 1.3.3.4.2.8.4 1.1.7.2.3.4.6.6 1 .1.4.2.8.2 1.3 0 .9-.2 1.6-.5 2.4-.3.7-.7 1.4-1.3 1.9-.2.2-.5.5-.8.7-.3.2-.6.4-.9.5-.3.1-.5.3-.7.4-.2.1-.3.1-.4.2l-1.4-2c.3-.1.5-.2.8-.4.3-.1.6-.3.9-.5.3-.2.5-.5.7-.8.2-.3.3-.6.3-1-.7 0-1.2-.2-1.7-.6-.6-.3-.8-.9-.8-1.6z"/></symbol><symbol id="icon-twitter" viewBox="0 0 17.5 14.7"><path d="M11.3.2c1.7-.5 3.1.2 3.7 1.1l2.1-.7c0 .8-.5 1.5-.9 1.7.7.2 1.3-.5 1.3-.5-.2 1-1 1.7-1.6 2-.2 6.6-3.3 11-10.4 10.8h-.5c-.4 0-4.3-.4-5-1.8 2.3.2 4-.4 4.8-1.1-1-.3-2.8-.5-3.1-2.9.4.1.6.2 1.3.1-1.2-.8-2.6-1.5-2.5-3.7.3.3 1.1.5 1.4.5-.7-.2-2-3.3-.9-4.8 1.9 1.8 3.8 3.5 7.4 3.7.1-2.3 1.1-3.8 2.9-4.4z"/></symbol><symbol id="icon-youtube" viewBox="0 0 20 14"><path d="M17.1 0h-14.3c-1.5 0-2.8 1.3-2.8 2.8v8.3c0 1.6 1.3 2.9 2.8 2.9h14.3c1.6 0 2.8-1.3 2.8-2.8v-8.4c.1-1.5-1.2-2.8-2.8-2.8zm-10.1 10.4v-6.8l6.8 3.4-6.8 3.4z"/></symbol></svg>